<?xml version="1.0" encoding="UTF-8" standalone="no"?>
<svg
   version="1.0"
   width="1279.7755pt"
   height="732.44098pt"
   viewBox="0 0 1279.7755 732.44098"
   preserveAspectRatio="xMidYMid"
   id="svg8"
   sodipodi:docname="311002.svg"
   inkscape:version="1.2.2 (732a01da63, 2022-12-09)"
   xmlns:inkscape="http://www.inkscape.org/namespaces/inkscape"
   xmlns:sodipodi="http://sodipodi.sourceforge.net/DTD/sodipodi-0.dtd"
   xmlns="http://www.w3.org/2000/svg"
   xmlns:svg="http://www.w3.org/2000/svg">
  <defs
     id="defs12" />
  <sodipodi:namedview
     id="namedview10"
     pagecolor="#ffffff"
     bordercolor="#000000"
     borderopacity="0.25"
     inkscape:showpageshadow="2"
     inkscape:pageopacity="0.0"
     inkscape:pagecheckerboard="0"
     inkscape:deskcolor="#d1d1d1"
     inkscape:document-units="pt"
     showgrid="false"
     inkscape:zoom="0.70898438"
     inkscape:cx="628.36364"
     inkscape:cy="1221.4656"
     inkscape:window-width="1920"
     inkscape:window-height="1017"
     inkscape:window-x="-8"
     inkscape:window-y="-8"
     inkscape:window-maximized="1"
     inkscape:current-layer="svg8" />
  <metadata
     id="metadata2">
Created by potrace 1.15, written by Peter Selinger 2001-2017
</metadata>
  <g
     transform="matrix(0.1,0,0,-0.1,-0.11221587,732.56458)"
     fill="#000000"
     stroke="none"
     id="g6">
    <path
       d="m 3166,7320 c -63,-20 -81,-62 -51,-119 16,-32 60,-52 150,-71 33,-7 116,-30 185,-53 115,-37 133,-40 230,-40 58,1 134,6 169,12 36,6 67,9 69,6 4,-4 71,-228 252,-840 33,-110 104,-352 159,-539 56,-186 98,-342 95,-347 -2,-4 -21,-11 -40,-15 -20,-4 -38,-12 -40,-18 -2,-6 4,-36 14,-66 17,-49 22,-55 43,-51 62,10 60,13 92,-101 l 29,-107 -258,-277 c -143,-153 -279,-300 -303,-326 -37,-42 -48,-48 -70,-43 -14,4 -32,16 -40,28 -28,41 -64,67 -104,78 -23,6 -50,23 -65,41 -28,32 -77,58 -113,58 -11,0 -30,11 -41,25 -25,32 -63,52 -108,56 -20,2 -54,18 -78,36 -39,29 -83,41 -125,34 -4,-1 -24,11 -43,26 -26,19 -50,28 -92,31 -32,2 -80,15 -109,29 -40,19 -61,23 -90,18 -28,-4 -51,0 -87,15 -39,18 -57,20 -95,14 -25,-4 -50,-6 -56,-4 -79,25 -108,29 -143,17 -30,-10 -44,-10 -79,3 -36,12 -48,12 -85,1 -24,-7 -53,-13 -65,-12 -13,0 -47,2 -75,3 -31,1 -64,-4 -78,-12 -15,-9 -46,-13 -81,-11 -42,2 -67,-3 -97,-18 -27,-14 -60,-21 -95,-21 -40,0 -63,-6 -89,-24 -23,-15 -54,-25 -91,-28 -40,-3 -65,-12 -91,-31 -19,-15 -47,-27 -63,-27 -38,-1 -109,-34 -125,-59 -8,-13 -23,-21 -41,-21 -40,0 -95,-28 -119,-60 -14,-19 -33,-30 -61,-34 -31,-5 -52,-18 -84,-51 -23,-25 -46,-45 -50,-45 -25,0 -96,-47 -114,-76 -12,-20 -37,-41 -57,-50 -46,-19 -77,-47 -92,-84 -7,-16 -25,-34 -42,-41 -36,-15 -73,-52 -89,-90 -6,-15 -29,-39 -51,-54 -27,-18 -47,-43 -65,-81 -13,-30 -28,-54 -33,-54 -20,0 -70,-64 -80,-102 -7,-24 -24,-51 -42,-66 -32,-28 -58,-77 -58,-113 0,-11 -11,-30 -25,-41 -33,-26 -54,-67 -57,-113 -1,-25 -12,-49 -30,-69 -25,-28 -52,-111 -42,-128 3,-4 -7,-24 -22,-44 -20,-26 -29,-50 -32,-92 -2,-32 -15,-80 -29,-110 -20,-40 -24,-61 -19,-91 4,-28 0,-52 -15,-86 -17,-38 -19,-57 -13,-94 4,-25 6,-50 4,-56 -25,-80 -29,-109 -17,-143 10,-29 10,-44 0,-72 -16,-47 -16,-74 1,-115 12,-28 13,-45 4,-89 -10,-47 -9,-58 9,-94 15,-31 19,-54 15,-95 -3,-41 1,-63 18,-96 12,-24 21,-57 20,-74 -3,-59 0,-74 24,-109 15,-23 25,-54 28,-91 3,-40 12,-65 31,-91 15,-19 27,-47 27,-63 1,-38 34,-109 59,-125 13,-8 21,-23 21,-41 0,-39 27,-92 60,-120 17,-15 30,-38 34,-63 6,-28 21,-51 52,-81 24,-24 44,-46 44,-50 0,-25 47,-96 76,-114 20,-12 41,-37 50,-57 19,-46 47,-77 84,-92 16,-7 34,-25 41,-42 15,-36 52,-73 90,-89 15,-6 39,-29 54,-51 18,-27 43,-47 81,-65 30,-13 54,-28 54,-32 0,-19 66,-72 102,-82 24,-6 51,-23 66,-41 28,-32 77,-58 113,-58 11,0 30,-11 41,-25 26,-33 67,-54 113,-57 25,-1 49,-12 69,-30 28,-25 111,-52 128,-42 4,3 24,-7 44,-22 26,-20 50,-29 92,-32 32,-2 80,-15 110,-29 40,-19 61,-24 90,-19 26,4 52,-1 89,-16 46,-19 59,-20 100,-11 27,7 52,8 58,3 24,-20 98,-29 134,-17 28,10 44,10 71,0 48,-16 86,-16 119,2 24,12 39,12 82,3 46,-9 60,-8 94,7 28,13 58,18 102,16 50,-2 69,1 98,19 27,17 46,21 75,17 38,-5 110,19 124,42 4,6 27,11 52,11 50,0 102,18 123,43 7,10 28,17 46,17 43,0 94,22 124,54 14,14 35,26 48,26 38,0 87,25 115,59 15,17 35,31 44,31 32,0 99,39 119,70 11,16 26,30 33,30 29,0 93,43 115,75 12,19 38,41 58,49 37,15 99,80 99,103 0,7 6,13 13,13 29,0 94,59 110,99 9,23 21,41 27,41 21,0 80,64 91,99 7,23 23,46 45,60 31,21 74,91 74,120 0,7 14,24 30,38 37,30 60,73 60,108 0,14 6,25 13,25 86,2 1089,103 1137,115 134,34 287,125 378,225 53,58 109,155 129,220 9,30 20,58 23,63 4,4 47,15 96,24 66,12 157,17 349,18 287,2 310,6 340,65 19,37 19,53 0,90 -30,58 -67,67 -305,73 -247,8 -467,36 -487,64 -7,9 -14,23 -14,30 -1,7 -2,16 -3,21 -2,11 -36,85 -47,102 -5,8 -14,26 -21,40 -7,14 -18,33 -26,42 -12,15 -12,20 4,41 11,12 510,626 1111,1363 l 1092,1339 136,104 c 75,57 140,99 145,95 4,-5 23,-56 41,-114 18,-58 38,-110 46,-116 7,-6 49,-19 93,-28 153,-34 139,-23 205,-146 33,-61 64,-109 70,-106 7,2 43,-78 88,-191 74,-190 76,-196 59,-219 -9,-13 -26,-24 -36,-24 -34,0 -100,-39 -121,-70 -11,-16 -26,-30 -33,-30 -30,0 -94,-43 -118,-79 -14,-22 -36,-42 -49,-45 -34,-9 -80,-51 -95,-86 -7,-16 -18,-30 -24,-30 -27,0 -85,-52 -106,-95 -12,-25 -26,-45 -31,-45 -20,0 -80,-65 -90,-99 -7,-23 -23,-46 -45,-60 -31,-21 -74,-91 -74,-120 0,-7 -14,-24 -30,-38 -35,-29 -60,-72 -60,-104 0,-12 -15,-39 -34,-60 -32,-35 -56,-91 -56,-130 0,-9 -7,-23 -17,-30 -24,-20 -55,-96 -52,-127 2,-17 -8,-44 -25,-69 -23,-34 -28,-53 -27,-94 0,-38 -5,-59 -22,-83 -17,-24 -22,-46 -23,-96 0,-42 -7,-77 -18,-99 -14,-27 -17,-47 -12,-89 5,-40 2,-67 -10,-99 -14,-37 -15,-52 -6,-94 9,-38 9,-60 0,-94 -10,-35 -9,-54 0,-87 15,-51 15,-50 7,-114 -6,-40 -3,-58 12,-90 15,-29 18,-48 12,-74 -9,-39 -3,-71 19,-115 9,-16 16,-55 17,-86 1,-44 6,-64 26,-90 18,-24 26,-48 28,-82 1,-50 19,-94 45,-116 9,-8 16,-29 16,-48 0,-44 21,-92 54,-122 16,-16 26,-35 26,-53 0,-37 20,-75 59,-112 17,-17 31,-38 31,-49 0,-34 31,-85 65,-108 20,-14 36,-35 39,-52 8,-39 42,-84 76,-102 17,-9 33,-28 40,-49 11,-35 63,-89 97,-100 10,-4 27,-26 38,-49 15,-31 33,-49 68,-68 27,-14 57,-39 67,-56 23,-39 63,-70 100,-78 17,-4 30,-11 30,-15 0,-21 73,-80 111,-90 25,-7 52,-24 67,-42 28,-32 77,-58 113,-58 11,0 30,-11 41,-25 25,-32 63,-52 108,-56 19,-2 51,-16 70,-31 34,-26 115,-52 132,-42 4,3 24,-7 44,-22 26,-20 50,-29 92,-32 32,-2 80,-15 110,-29 40,-19 61,-24 90,-19 26,4 52,-1 89,-16 45,-18 59,-20 97,-11 30,7 50,7 62,0 35,-20 98,-26 134,-13 28,10 42,10 65,0 40,-17 78,-17 120,0 28,12 45,13 87,4 45,-9 59,-8 93,7 26,12 59,17 96,16 42,-2 68,3 99,19 23,12 56,21 73,20 59,-3 74,0 109,24 23,15 54,25 91,28 40,3 65,12 91,31 19,15 47,27 63,27 38,1 109,34 125,59 8,13 23,21 41,21 40,0 95,28 119,60 14,19 33,30 61,34 31,5 52,18 84,51 23,25 46,45 50,45 25,0 96,47 114,76 12,20 37,41 57,50 46,19 77,47 92,84 7,16 25,34 42,41 36,15 73,52 89,90 6,15 29,39 51,54 27,18 47,43 65,81 13,30 28,54 33,54 20,0 70,64 80,102 7,24 24,51 42,66 32,28 58,77 58,113 0,11 11,30 25,41 32,25 52,63 56,108 2,19 16,51 31,70 26,34 52,115 42,132 -3,4 7,24 22,44 20,26 29,50 32,92 2,32 15,80 29,110 19,40 24,61 19,90 -4,26 1,52 16,89 18,45 20,59 11,97 -7,30 -7,50 0,62 19,34 26,98 13,134 -9,27 -9,43 1,70 16,47 16,74 -1,115 -12,28 -13,45 -4,89 10,47 9,58 -9,94 -15,31 -19,54 -15,95 3,41 -1,63 -18,96 -12,24 -21,57 -20,74 3,59 0,74 -24,109 -15,23 -25,54 -28,91 -3,40 -12,65 -31,91 -15,19 -27,47 -27,63 -1,38 -34,109 -59,125 -13,8 -21,23 -21,41 0,39 -27,92 -60,120 -17,15 -30,38 -34,63 -6,28 -21,51 -52,81 -24,24 -44,46 -44,50 0,25 -47,96 -76,114 -20,12 -41,37 -50,57 -19,46 -47,77 -84,92 -16,6 -34,25 -40,41 -14,32 -68,84 -98,93 -11,4 -32,25 -47,47 -18,28 -43,48 -81,66 -30,13 -54,28 -54,32 0,19 -63,69 -101,80 -23,7 -53,26 -67,43 -28,32 -77,58 -113,58 -11,0 -30,11 -41,25 -26,33 -67,54 -114,57 -23,1 -47,11 -63,26 -32,30 -59,41 -108,44 -22,1 -52,12 -71,27 -24,17 -50,26 -90,28 -32,3 -74,14 -97,26 -28,15 -56,21 -95,20 -37,-1 -69,6 -99,20 -38,17 -51,19 -94,10 -39,-8 -56,-7 -78,4 -32,16 -109,20 -133,6 -12,-7 -32,-5 -63,5 -38,13 -53,13 -87,3 -23,-7 -51,-13 -63,-12 -13,0 -47,2 -76,3 -35,1 -62,-3 -78,-13 -17,-12 -41,-15 -85,-11 -49,3 -67,0 -95,-17 -24,-15 -51,-21 -90,-21 -43,0 -65,-6 -93,-25 -24,-16 -51,-25 -76,-25 -47,0 -88,-15 -117,-42 -13,-12 -25,-19 -28,-16 -16,16 -152,375 -145,383 4,6 -19,85 -53,178 l -60,167 h -106 -107 l -36,38 c -19,20 -42,57 -51,82 -65,193 -306,806 -333,851 -19,30 -37,71 -40,90 l -5,34 189,88 c 104,48 193,87 197,87 5,0 16,-7 24,-15 13,-11 25,-12 58,-3 41,10 43,9 104,-40 57,-46 67,-51 131,-57 l 70,-7 54,53 c 38,38 52,59 48,71 -7,22 -1,22 53,2 39,-15 45,-15 61,-1 15,13 23,13 82,-7 36,-12 92,-39 125,-60 l 59,-38 29,32 c 15,17 27,38 25,45 -7,29 -105,96 -180,123 -51,17 -78,32 -78,42 0,8 -16,39 -36,68 l -35,53 29,34 c 66,74 43,187 -48,233 -62,32 -105,25 -188,-30 -156,-104 -234,-143 -545,-279 -266,-115 -330,-140 -337,-128 -22,34 -188,-6 -229,-55 -9,-11 1,-54 46,-193 52,-162 57,-185 54,-254 -2,-51 3,-88 13,-113 12,-28 12,-38 3,-41 -7,-3 -412,-104 -902,-226 -489,-121 -1288,-319 -1774,-440 -486,-120 -889,-219 -896,-219 -7,0 -17,17 -22,39 l -10,39 58,17 57,18 4,64 c 2,36 0,67 -3,69 -3,2 -42,-8 -85,-21 -43,-14 -80,-25 -81,-25 -3,0 -31,95 -213,720 -89,305 -189,648 -222,763 -34,114 -58,210 -55,213 3,4 138,9 299,11 283,5 298,4 444,-21 170,-29 205,-31 222,-14 36,36 -4,84 -105,127 -102,42 -226,53 -723,61 -447,7 -603,17 -790,50 -79,15 -340,21 -374,10 z M 8143,5688 c -6,-7 -455,-560 -998,-1228 -544,-668 -1076,-1323 -1183,-1455 -107,-132 -199,-244 -203,-249 -5,-5 -36,-2 -76,9 -45,13 -102,19 -170,19 -57,0 -103,2 -103,3 0,2 -428,1577 -527,1940 -20,73 -34,135 -31,138 6,7 -14,1 1773,450 825,207 1502,379 1504,381 11,10 23,3 14,-8 z M 4623,4615 c 20,-71 86,-308 147,-525 61,-217 150,-532 197,-700 47,-168 105,-374 129,-459 24,-85 43,-156 41,-157 -1,-1 -77,-4 -169,-6 l -166,-4 1,51 c 0,31 -6,63 -18,85 -11,21 -19,57 -20,91 -1,44 -6,64 -26,90 -18,24 -26,48 -28,82 -1,50 -19,94 -45,116 -9,8 -16,29 -16,48 0,44 -21,92 -54,122 -16,16 -26,35 -26,53 0,38 -22,80 -60,111 -16,14 -30,35 -30,47 0,34 -36,94 -68,112 -19,11 -32,29 -36,49 -8,41 -41,86 -76,104 -16,8 -34,30 -43,53 -16,39 -61,85 -94,96 -10,4 -26,25 -37,47 -10,22 -31,48 -46,58 l -28,17 261,281 c 144,155 265,279 268,275 3,-4 22,-65 42,-137 z M 2580,4289 c 234,-21 458,-83 665,-183 119,-58 298,-171 293,-185 -2,-5 -226,-248 -498,-540 -489,-525 -495,-531 -512,-509 -14,19 -19,21 -42,10 -22,-10 -31,-9 -52,4 -23,16 -26,15 -44,-1 -17,-15 -25,-16 -45,-7 -20,9 -27,8 -42,-6 -9,-9 -31,-17 -47,-17 -23,0 -34,-6 -41,-23 -6,-14 -18,-22 -30,-21 -36,2 -43,-1 -49,-25 -4,-18 -14,-26 -34,-28 -21,-2 -28,-9 -30,-31 -2,-19 -11,-31 -28,-37 -17,-7 -24,-17 -24,-37 0,-18 -8,-33 -21,-41 -16,-10 -20,-20 -16,-40 4,-19 -1,-34 -15,-49 -16,-17 -18,-25 -8,-43 9,-17 8,-26 -5,-47 -15,-23 -15,-26 1,-44 14,-16 15,-24 6,-44 -10,-21 -8,-28 10,-44 15,-14 19,-27 14,-45 -5,-20 -1,-29 19,-42 14,-9 25,-24 24,-33 -3,-32 1,-39 25,-45 18,-4 26,-14 28,-33 2,-22 9,-29 31,-33 16,-3 33,-15 40,-30 10,-19 19,-24 39,-22 l 26,3 -14,-56 c -8,-31 -14,-77 -12,-103 2,-38 8,-49 28,-59 51,-26 445,-7 467,23 7,10 13,12 18,4 4,-6 2,-17 -5,-25 -9,-10 -8,-19 1,-37 7,-13 12,-31 10,-41 -1,-9 5,-20 13,-23 9,-3 16,-10 16,-14 0,-20 -70,-75 -178,-140 -97,-58 -140,-76 -250,-108 -86,-25 -141,-47 -158,-63 -22,-21 -28,-22 -64,-12 -22,6 -42,7 -45,4 -9,-16 75,-178 112,-217 39,-41 109,-69 193,-76 30,-3 35,0 38,20 2,15 10,22 24,22 21,0 1021,79 1306,103 83,7 152,10 152,5 0,-14 -185,-200 -259,-260 C 3168,611 2596,469 2046,581 1392,714 850,1193 641,1825 c -225,682 -52,1415 453,1921 394,393 940,593 1486,543 z m 7955,1 c 493,-46 938,-270 1255,-633 611,-698 623,-1730 29,-2442 -438,-525 -1139,-771 -1811,-635 -744,151 -1327,739 -1472,1485 -131,673 125,1378 659,1811 74,60 174,129 179,123 2,-2 166,-413 366,-914 199,-500 363,-912 365,-913 2,-2 49,13 106,34 77,28 115,37 155,35 59,-2 113,20 153,63 14,14 30,26 37,26 16,0 9,98 -12,157 -27,74 -105,120 -188,111 l -42,-5 -22,56 c -11,31 -93,247 -182,481 -89,234 -213,560 -276,725 -63,166 -114,306 -114,312 0,16 162,67 292,93 186,37 346,46 523,30 z M 3772,3722 c 232,-243 388,-523 468,-840 17,-65 30,-122 30,-128 0,-12 -21,-13 -740,-39 -496,-18 -719,-21 -747,-11 -15,5 -23,15 -23,31 0,13 -7,28 -16,33 -14,8 68,100 460,521 263,281 481,511 485,511 5,0 42,-35 83,-78 z M 5160,2704 c 13,-34 13,-34 -10,-34 -12,0 -26,-12 -35,-30 -9,-18 -23,-30 -36,-30 -12,0 -23,-10 -29,-25 -5,-14 -20,-29 -34,-34 -13,-6 -26,-21 -30,-36 -4,-14 -18,-31 -31,-37 -17,-8 -25,-19 -25,-37 0,-15 -8,-31 -20,-39 -12,-7 -20,-23 -20,-41 0,-16 -7,-34 -16,-42 -11,-9 -14,-22 -10,-41 4,-22 2,-28 -12,-28 -13,0 -17,9 -18,38 -1,20 -3,55 -4,77 -1,22 1,60 5,85 5,32 3,56 -7,80 -10,24 -12,44 -6,65 5,17 7,51 4,77 l -5,47 132,4 c 73,1 147,4 165,5 27,2 34,-3 42,-24 z m -876,-41 c 12,-67 19,-349 10,-364 -8,-13 -41,-12 -269,11 -143,15 -454,47 -691,71 -417,42 -431,44 -448,67 -16,21 -17,27 -5,49 12,22 11,26 -9,42 -18,13 -21,23 -16,48 5,26 3,32 -15,38 -50,16 -13,25 102,25 152,0 1301,42 1328,48 4,1 9,-15 13,-35 z m -869,-493 c 308,-33 572,-60 588,-60 21,0 30,-7 38,-27 23,-61 79,-96 154,-97 47,-1 50,-2 46,-26 -8,-62 -77,-246 -135,-365 -65,-131 -168,-292 -196,-306 -8,-4 -353,-33 -766,-66 l -752,-58 2,36 c 1,21 8,44 16,54 11,14 11,18 -2,31 -30,31 -11,58 67,93 40,18 113,58 161,90 49,31 126,79 171,106 117,69 179,129 188,183 16,95 -26,148 -182,232 -107,57 -130,86 -76,92 22,2 29,9 33,33 3,19 12,31 25,34 26,4 36,21 29,45 -5,16 9,35 26,36 3,0 257,-27 565,-60 z m 1439,-249 c 12,-13 15,-27 11,-41 -5,-15 0,-29 15,-45 14,-15 20,-30 16,-43 -5,-14 1,-24 19,-36 16,-10 25,-26 25,-41 0,-17 8,-29 24,-36 14,-7 26,-23 30,-40 4,-21 11,-29 26,-29 14,0 24,-10 31,-30 8,-22 17,-30 35,-30 16,0 28,-8 36,-25 8,-18 19,-25 38,-25 19,0 33,-9 45,-26 13,-20 22,-24 40,-20 17,4 28,0 39,-15 11,-17 20,-20 45,-14 20,4 31,3 31,-4 0,-6 -7,-11 -14,-11 -17,0 -659,-57 -719,-64 -33,-4 -37,-2 -31,12 4,10 12,38 18,63 6,26 19,55 28,66 25,28 50,91 47,122 -2,15 8,43 25,68 23,34 28,53 27,94 0,37 5,59 19,79 11,16 23,42 26,59 8,37 41,42 68,12 z"
       id="path4" />
  </g>
  <path
     style="fill:#de5631;fill-opacity:1;stroke-width:1.05785"
     d="m 243.89828,731.42618 c -0.48515,-0.48752 -5.72151,-1.00639 -11.63637,-1.15308 -20.85417,-0.51713 -25.58706,-0.88267 -27.87483,-2.1529 -1.27085,-0.70558 -4.46644,-1.28289 -7.10134,-1.28289 -2.63489,0 -7.09751,-0.90926 -9.91691,-2.02056 -2.81942,-1.11132 -7.47837,-2.35281 -10.35321,-2.75888 -2.87486,-0.4061 -7.21591,-1.87701 -9.64679,-3.26871 -2.43088,-1.3917 -5.67043,-2.53036 -7.19903,-2.53036 -1.52858,0 -5.91886,-1.66612 -9.75617,-3.70248 -3.83731,-2.03637 -7.88854,-3.70248 -9.00275,-3.70248 -2.54013,0 -5.87389,-1.69069 -9.2917,-4.71219 -1.45454,-1.28589 -4.57029,-2.88375 -6.92387,-3.55079 -2.35357,-0.66705 -6.16184,-2.79903 -8.4628,-4.73774 -2.30097,-1.93871 -5.82927,-4.18954 -7.84068,-5.00186 -2.01141,-0.8123 -5.43733,-3.25715 -7.61316,-5.43299 -2.175831,-2.17583 -5.528481,-4.74001 -7.450334,-5.6982 -1.921845,-0.95817 -5.636422,-3.84231 -8.254605,-6.4092 -10.176382,-9.97698 -14.998753,-14.75891 -16.201823,-16.06591 -0.688996,-0.74852 -2.8207,-2.59352 -4.737122,-4.10001 -1.916422,-1.50649 -4.404819,-4.54323 -5.52977,-6.74832 -1.124952,-2.20508 -3.38952,-4.96637 -5.032374,-6.13619 -1.642853,-1.16981 -4.347583,-4.66114 -6.01051,-7.7585 -1.662928,-3.09736 -4.851866,-7.64408 -7.08653,-10.10381 -2.234663,-2.45972 -4.063025,-5.41837 -4.063025,-6.57476 0,-1.15638 -1.362087,-3.6662 -3.02686,-5.57735 -3.894366,-4.47072 -6.493801,-9.57791 -6.493801,-12.75856 0,-1.38202 -1.199243,-3.63939 -2.664986,-5.01639 -1.466535,-1.37773 -3.571994,-5.44017 -4.681899,-9.03362 -1.109303,-3.59151 -3.004274,-8.37222 -4.211047,-10.62379 -1.206773,-2.25159 -2.198486,-5.52894 -2.203806,-7.283 -0.0053,-1.75408 -1.180515,-5.56939 -2.611547,-8.47848 -1.4310302,-2.90908 -2.6167607,-7.20988 -2.6349557,-9.55732 -0.018195,-2.34744 -1.0169955,-7.06749 -2.2195573,-10.48899 -1.2025618,-3.4215 -1.9234486,-7.2689 -1.6019708,-8.54976 0.3214779,-1.28088 -0.1185853,-4.69643 -0.9779185,-7.59011 -0.8593331,-2.89369 -1.5665479,-8.55046 -1.5715884,-12.57059 -0.00504,-4.02014 -0.023305,-13.02174 -0.040589,-20.00356 -0.043659,-17.63641 0.8999283,-29.69811 2.8377686,-36.27466 0.9070609,-3.07834 1.3903177,-6.58696 1.0739041,-7.79693 -0.3164136,-1.20997 0.3143306,-4.45694 1.4016537,-7.21551 1.0873232,-2.75856 2.5250394,-8.03809 3.1949253,-11.73229 0.669887,-3.6942 2.061124,-7.92527 3.091637,-9.40239 1.030513,-1.47711 2.13654,-4.37866 2.457836,-6.44789 0.573154,-3.69127 2.489333,-8.44209 5.522602,-13.69231 0.84035,-1.45455 1.810875,-4.45815 2.156722,-6.67468 0.388067,-2.48713 2.023451,-5.57377 4.271516,-8.06211 2.003488,-2.21762 3.642705,-4.83104 3.642705,-5.80759 0,-2.31456 2.582197,-7.26777 4.708993,-9.03284 0.921217,-0.76456 3.413904,-4.69934 5.539305,-8.74398 2.1254,-4.04464 5.000735,-8.09848 6.389632,-9.00852 1.388898,-0.91004 3.518221,-3.60096 4.731828,-5.97983 1.213607,-2.37887 4.399408,-6.4905 7.079557,-9.13698 2.680149,-2.64648 5.767924,-6.15435 6.861723,-7.79528 1.093797,-1.64092 3.61037,-3.9403 5.592383,-5.10973 1.982014,-1.16941 4.323147,-3.51754 5.202522,-5.21806 0.879375,-1.70051 4.075192,-4.68813 7.101832,-6.63913 3.026633,-1.951 6.931065,-5.08658 8.676525,-6.96796 1.745453,-1.88136 5.07768,-4.28193 7.404949,-5.33456 2.32727,-1.05265 5.88081,-3.61815 7.89675,-5.7011 2.02093,-2.08811 5.48677,-4.27766 7.72522,-4.88042 2.23293,-0.60126 5.00469,-2.03802 6.15946,-3.19279 3.39661,-3.39661 8.69182,-6.24342 11.62095,-6.24767 1.54022,-0.002 3.81306,-1.16247 5.22832,-2.66894 1.41982,-1.51133 5.50117,-3.59083 9.42802,-4.80373 3.80844,-1.1763 8.01218,-2.85145 9.34166,-3.72256 1.32948,-0.87111 5.1283,-2.08501 8.44182,-2.69754 3.31351,-0.61254 7.80583,-2.02244 9.98293,-3.1331 2.17709,-1.11068 5.76244,-2.0403 7.96744,-2.06584 2.20499,-0.0255 5.91322,-0.77841 8.24049,-1.67305 7.34771,-2.82455 36.94338,-5.57692 54.47934,-5.06652 14.49485,0.42188 30.6622,2.09943 34.6633,3.59672 1.90118,0.71146 4.54666,1.02 5.87887,0.68563 1.36101,-0.34159 5.63976,0.52735 9.76645,1.9834 4.03935,1.42523 8.58247,2.60137 10.0958,2.61364 1.51335,0.0123 4.98978,1.21239 7.72541,2.66694 2.73562,1.45455 6.25776,2.64431 7.82697,2.6439 1.56922,-3.9e-4 6.18535,1.64328 10.25807,3.65258 4.07273,2.00929 8.66519,3.91056 10.20547,4.22501 1.54028,0.31446 4.79854,2.24106 7.24059,4.28133 2.44204,2.04026 5.37074,3.70958 6.50821,3.70958 2.77725,0 7.31167,2.42971 9.89947,5.30451 1.16226,1.29117 4.49337,3.42244 7.40246,4.73616 2.9091,1.31372 6.92976,4.11432 8.93479,6.22354 2.00504,2.10923 4.6344,3.83496 5.843,3.83496 1.34854,0 5.28348,-3.16721 10.18566,-8.19835 8.85483,-9.08778 49.34288,-52.66257 51.53348,-55.4623 1.1631,-1.48652 1.02487,-3.03765 -0.84839,-9.52041 -3.86752,-13.38436 -3.979,-13.56275 -8.47498,-13.56275 -3.34557,0 -4.16099,-0.46047 -5.15143,-2.90908 -2.42136,-5.98619 -2.02321,-7.84832 1.97787,-9.25058 4.61015,-1.61572 4.6205,-1.47141 -1.67971,-23.45139 -5.4209,-18.91231 -36.94095,-125.486392 -41.80966,-141.3648 l -3.17795,-10.364291 -9.19526,0.843629 c -17.04904,1.564182 -25.16218,0.987646 -36.6994,-2.607929 -5.81818,-1.813236 -14.86281,-4.363835 -20.09917,-5.667998 -6.95718,-1.732749 -10.30395,-3.152183 -12.42976,-5.271725 -3.93286,-3.9212632 -3.95021,-8.6807465 -0.041,-11.2372246 2.4565,-1.60645498 5.07527,-1.84541248 18.24794,-1.66509228 8.4589,0.1157938 19.90213,0.94726138 25.42941,1.84770568 13.90338,2.2649902 36.95878,3.5757912 84.62809,4.8114795 51.60652,1.337748 59.93291,2.4877235 69.80821,9.6413597 3.21009,2.32538 4.28613,3.787501 4.04332,5.494071 -0.47248,3.320747 -5.31776,3.461601 -23.40063,0.680263 -13.43658,-2.066688 -18.03792,-2.260528 -43.82378,-1.846164 -15.84598,0.254636 -29.13421,0.786303 -29.5294,1.181485 -0.96596,0.965971 1.88016,11.332103 23.53834,85.731151 23.58911,81.03213 24.58679,84.24973 26.12011,84.24003 0.70229,-0.005 4.3711,-0.95287 8.15293,-2.10762 3.78181,-1.15476 6.99504,-2.10318 7.14049,-2.10762 0.14546,-0.005 0.26447,2.76118 0.26447,6.14584 v 6.15392 l -5.81819,1.83402 c -3.2,1.00871 -5.81817,2.21469 -5.81817,2.67996 0,2.65341 2.5624,7.50876 3.96275,7.50876 2.57621,0 125.68549,-30.35424 344.41781,-84.9208 l 13.57065,-3.38543 -0.64868,-3.18573 c -0.35685,-1.75215 -1.0581,-7.94607 -1.55835,-13.76424 -0.64237,-7.469946 -2.16315,-14.538239 -5.17522,-24.053541 -6.10275,-19.278893 -6.12413,-18.723377 0.85702,-22.258492 5.02373,-2.543883 6.87713,-2.907214 13.75208,-2.695888 7.89517,0.242685 8.09047,0.181724 30.60757,-9.551127 30.23663,-13.069554 43.89383,-19.78372 57.18458,-28.113144 12.4473,-7.800806 16.58167,-8.653603 22.93057,-4.729812 7.53068,4.65422 9.17056,14.203251 3.62431,21.104749 l -3.21511,4.000836 3.63323,6.033609 c 1.9983,3.318485 3.77317,6.415694 3.94417,6.882688 0.171,0.466993 3.88118,2.49225 8.24483,4.50057 8.58622,3.951736 16.92562,9.585163 16.92562,11.433631 0,0.633807 -0.98887,2.541147 -2.19757,4.238532 l -2.1975,3.086153 -2.82728,-1.9938 c -3.85972,-2.721893 -12.54165,-6.985633 -17.48452,-8.586751 -3.13688,-1.016129 -4.61183,-1.035867 -6.38768,-0.08547 -1.67137,0.894503 -3.12007,0.927343 -5.24632,0.11893 -4.36103,-1.65806 -7.03103,-1.392952 -7.03103,0.698111 0,0.998197 -2.21295,4.061601 -4.9176,6.807567 -4.85392,4.928034 -4.98742,4.984787 -10.31407,4.384232 -6.19688,-0.69867 -9.0207,-1.95345 -14.85248,-6.599747 -3.4584,-2.755432 -4.98742,-3.282309 -8.99475,-3.099458 -2.65545,0.121166 -5.82255,-0.311926 -7.038,-0.962423 -1.86225,-0.996662 -4.6077,-0.09186 -17.45145,5.751483 -8.3829,3.813817 -17.02185,7.717575 -19.19775,8.675025 -5.25772,2.313525 -5.15625,4.236525 0.92385,17.496951 5.31645,11.595056 14.43278,34.471126 25.88085,64.943886 8.3121,22.12544 8.7123,22.99565 12.38775,26.93633 2.6166,2.80543 3.09705,2.90909 13.48433,2.90909 h 10.77097 l 4.84545,14.01653 c 2.66498,7.70909 5.55158,16.9055 6.4146,20.43645 1.6743,6.85001 12.86363,36.3458 14.3592,37.85166 0.4914,0.49482 2.964,-0.28159 5.49465,-1.72537 2.53058,-1.44376 6.74325,-2.90145 9.36143,-3.23931 2.61817,-0.33785 6.64612,-1.58458 8.95095,-2.7705 2.30482,-1.18593 5.97652,-2.15623 8.15917,-2.15623 2.18273,0 6.384,-0.95207 9.33615,-2.11571 3.0783,-1.21334 7.86203,-2.1157 11.21625,-2.1157 3.2167,0 6.7319,-0.47274 7.8115,-1.05054 2.0391,-1.09127 38.4521,-1.57299 53.4838,-0.70756 4.6812,0.26952 11.075,1.25139 14.2085,2.18192 3.1334,0.93054 7.1743,1.69189 8.9799,1.69189 1.8054,0 5.9914,0.95206 9.3021,2.1157 3.3108,1.16363 7.3887,2.1157 9.062,2.1157 1.6733,0 5.177,1.13499 7.786,2.5222 2.609,1.38722 6.8451,2.86635 9.4138,3.28698 2.5686,0.42063 6.1822,1.90133 8.0303,3.29045 1.8482,1.38913 5.8129,3.05169 8.8108,3.6946 3.3053,0.70889 6.8587,2.40551 9.0291,4.31105 1.9682,1.72818 5.2058,3.5914 7.1945,4.14051 1.9887,0.54911 5.4312,2.44107 7.65,4.20434 2.2188,1.76328 6.8245,4.69319 10.2349,6.51091 3.4104,1.81773 6.6477,4.14018 7.1941,5.161 0.5462,1.02082 3.5039,3.29246 6.5724,5.04809 3.0686,1.75563 6.66,4.65403 7.9812,6.44091 1.3211,1.78689 4.2828,4.43623 6.5816,5.88742 2.2989,1.45119 5.4585,4.57089 7.0215,6.93264 1.5629,2.36176 4.1885,4.99058 5.8346,5.8418 1.6461,0.85125 4.2456,3.55729 5.7765,6.01344 1.531,2.45615 5.0368,6.87096 7.7906,9.81069 2.7539,2.93973 5.3741,6.50998 5.8229,7.93388 0.4485,1.42391 2.8906,4.90156 5.4266,7.72813 2.5361,2.82656 4.6111,5.97433 4.6111,6.99504 0,1.0207 1.4744,3.70641 3.2766,5.96824 4.1778,5.24355 6.244,9.23295 6.244,12.05577 0,1.22664 1.3994,3.98748 3.1098,6.13518 1.7106,2.1477 3.6942,6.2575 4.4082,9.13289 0.714,2.87539 2.4031,7.15969 3.7534,9.52067 1.3504,2.36096 2.4655,5.72077 2.4782,7.46623 0.013,1.74545 1.2085,5.71999 2.6575,8.83231 1.4487,3.11232 2.6342,7.41312 2.6342,9.55733 0,2.1442 0.9769,6.67816 2.1711,10.07545 1.2935,3.68029 1.9161,7.33685 1.5407,9.04677 -0.3468,1.57843 0.1179,5.07419 1.0328,7.76836 0.9146,2.69418 1.6295,7.88927 1.5888,11.54468 -0.041,3.65539 0.1039,12.35857 0.3214,19.34039 0.2172,6.98182 -0.081,14.59834 -0.6612,16.92562 -0.581,2.32727 -0.9549,6.84958 -0.8307,10.04958 0.124,3.20001 -0.5199,7.92708 -1.4311,10.5046 -0.9112,2.57753 -1.5634,6.14778 -1.4495,7.93389 0.1138,1.7861 -0.829,6.22457 -2.0954,9.86324 -1.2664,3.63869 -2.3025,7.97109 -2.3025,9.62757 0,1.65649 -1.1901,5.25003 -2.6446,7.98566 -1.4546,2.73561 -2.6447,6.10416 -2.6447,7.48564 0,1.38148 -1.6032,5.58752 -3.5626,9.34675 -1.9594,3.75922 -3.8805,8.52936 -4.269,10.60029 -0.3885,2.07094 -2.2981,5.67057 -4.2436,7.99918 -1.9456,2.32861 -3.8398,5.84618 -4.2095,7.81683 -0.3696,1.97064 -2.2834,5.46534 -4.2527,7.76599 -1.9692,2.30065 -4.3457,6.01419 -5.2807,8.25231 -0.9352,2.23813 -3.307,5.58471 -5.2708,7.43683 -1.964,1.85213 -4.4101,4.99952 -5.4358,6.9942 -1.026,1.99469 -4.0573,5.85536 -6.7364,8.57927 -2.6791,2.72391 -6.0389,6.48634 -7.4664,8.36094 -1.4274,1.87461 -4.1349,4.31685 -6.017,5.4272 -1.8819,1.11035 -4.3986,3.67491 -5.5931,5.69901 -1.1941,2.02411 -3.6936,4.49371 -5.5543,5.488 -1.8605,0.9943 -5.7427,4.11558 -8.6268,6.93619 -2.8841,2.82061 -7.1977,5.97917 -9.5857,7.01902 -2.3881,1.03984 -5.7295,3.36239 -7.4255,5.16121 -1.6961,1.79882 -4.7902,3.81504 -6.876,4.48049 -2.0859,0.66545 -4.9826,2.28095 -6.4372,3.58999 -3.9529,3.55742 -7.5262,5.49467 -11.4772,6.22218 -1.9489,0.35885 -4.9456,1.83227 -6.6593,3.27426 -1.7137,1.44201 -5.1175,3.14702 -7.564,3.78894 -2.4465,0.6419 -6.5904,2.26862 -9.2085,3.61493 -2.6182,1.34631 -6.9025,2.79498 -9.5207,3.21926 -2.6181,0.42427 -6.5265,1.66643 -8.6852,2.76035 -2.1587,1.09391 -5.6217,1.98892 -7.6957,1.98892 -2.0742,0 -6.4799,0.95207 -9.7906,2.11571 -3.3108,1.16364 -8.2663,2.1157 -11.0122,2.1157 -2.746,0 -6.3327,0.53768 -7.9706,1.19486 -4.2639,1.71082 -22.3712,2.39985 -38.9449,1.48195 -5.2364,-0.29001 -13.0909,-0.70335 -17.4545,-0.91855 -4.3637,-0.21519 -9.274,-0.93684 -10.9119,-1.60368 -1.63777,-0.66684 -4.84102,-1.21243 -7.11817,-1.21243 -2.27715,0 -7.68548,-1.19009 -12.01845,-2.64463 -4.33305,-1.45455 -8.98815,-2.64463 -10.34475,-2.64463 -1.3566,0 -4.70213,-1.19008 -7.43445,-2.64462 -2.73233,-1.45455 -6.08805,-2.64463 -7.45718,-2.64463 -1.36912,0 -5.7942,-1.66465 -9.83362,-3.69923 -4.03935,-2.03456 -8.20095,-3.70068 -9.24803,-3.70248 -2.5779,-0.005 -7.18657,-2.47915 -9.6159,-5.16351 -1.09665,-1.21184 -3.56422,-2.49791 -5.48347,-2.85797 -1.91925,-0.36005 -5.3217,-2.22289 -7.56105,-4.13967 -2.23928,-1.91676 -6.36758,-4.56432 -9.17393,-5.88346 -2.80635,-1.31914 -6.59805,-3.92003 -8.42595,-5.77975 -1.82797,-1.85972 -5.13555,-4.23024 -7.35022,-5.26781 -2.21468,-1.03758 -5.27205,-3.5193 -6.79418,-5.51495 -1.5222,-1.99565 -4.84252,-5.05603 -7.3785,-6.80086 -2.53605,-1.74483 -5.75565,-4.98579 -7.15477,-7.20211 -1.39913,-2.21631 -4.24455,-5.08079 -6.32325,-6.36546 -2.07863,-1.28468 -5.0103,-4.43616 -6.51465,-7.00328 -1.5045,-2.56711 -4.0776,-5.62322 -5.71808,-6.79135 -1.64047,-1.16813 -4.04887,-4.38171 -5.35192,-7.14128 -1.30313,-2.75958 -4.15718,-6.77887 -6.3423,-8.93177 -2.1852,-2.15288 -4.31078,-5.45176 -4.72343,-7.33084 -0.41272,-1.87905 -2.53897,-5.67916 -4.725,-8.44466 -2.18595,-2.7655 -4.30642,-6.79756 -4.71217,-8.96013 -0.40568,-2.16256 -2.16915,-5.7133 -3.91883,-7.89052 -2.00287,-2.49231 -3.39697,-5.66612 -3.76387,-8.56854 -0.32048,-2.53548 -1.21598,-5.34144 -1.98998,-6.23545 -2.18182,-2.52008 -4.66155,-9.09788 -4.66155,-12.36548 0,-1.62332 -1.1901,-5.18705 -2.64465,-7.9194 -1.45455,-2.73236 -2.64465,-6.66774 -2.64465,-8.74529 0,-2.07755 -0.94462,-6.4651 -2.09925,-9.75013 -1.35067,-3.84291 -1.88647,-7.32281 -1.50262,-9.75869 0.33142,-2.10323 0,-5.19645 -0.74948,-6.95949 -3.24345,-7.64647 -2.48782,-58.5085 1.0293,-69.28227 0.66345,-2.03253 1.2168,-5.60278 1.22963,-7.93389 0.0127,-2.33111 0.9648,-6.31351 2.11567,-8.84977 1.15088,-2.53627 2.0925,-6.3377 2.0925,-8.44763 0,-2.10992 1.1277,-6.22323 2.50605,-9.14068 1.37835,-2.91744 3.0693,-7.6846 3.75773,-10.59369 0.68835,-2.90909 2.4168,-6.98097 3.84097,-9.0486 1.42418,-2.06763 2.58945,-4.59045 2.58945,-5.60625 0,-2.20732 2.5869,-7.41348 5.85915,-11.79143 1.30455,-1.74546 2.69288,-4.68861 3.08513,-6.54036 0.39225,-1.85173 2.51152,-5.42198 4.7094,-7.93388 2.19795,-2.51189 4.30395,-5.81874 4.68007,-7.34855 0.37613,-1.52982 2.76203,-5.10006 5.30205,-7.93389 2.54003,-2.83383 5.37728,-6.62886 6.30495,-8.4334 0.92768,-1.80454 3.48968,-4.86402 5.69333,-6.79886 2.20365,-1.93482 5.31232,-5.57674 6.90817,-8.09316 1.59593,-2.5164 4.45853,-5.49482 6.3615,-6.61868 1.9029,-1.12387 3.79515,-2.43195 4.20503,-2.90685 0.4098,-0.4749 2.48835,-2.88658 4.61895,-5.35931 2.1306,-2.47273 4.48635,-4.49587 5.23492,-4.49587 0.74865,0 3.61148,-2.34811 6.36188,-5.21803 2.75047,-2.86992 6.48585,-5.81069 8.30092,-6.53503 1.81508,-0.72435 5.2443,-3.07359 7.6206,-5.22053 2.37615,-2.14695 6.18443,-4.50459 8.46278,-5.2392 5.47665,-1.76588 6.78705,-2.92351 6.78705,-5.99599 0,-4.60811 -13.34408,-37.9313 -15.79852,-39.45248 -0.50596,-0.31358 -3.37568,-4.82316 -6.37718,-10.02128 -3.0015,-5.19811 -6.2613,-10.05655 -7.2441,-10.7965 -0.98273,-0.73995 -4.37655,-1.89486 -7.54177,-2.56647 -3.16523,-0.67159 -7.99313,-1.88576 -10.72868,-2.69815 l -4.97385,-1.47707 -3.9807,-11.6293 c -2.1894,-6.39612 -4.26398,-11.62754 -4.6101,-11.62535 -1.27665,0.008 -8.08725,4.59072 -18.1659,12.22341 -10.2036,7.72722 -11.90722,9.7474 -119.85539,142.12722 -60.22757,73.85872 -110.10401,135.24826 -110.83652,136.42121 -1.15824,1.85463 -0.69701,3.34681 3.53816,11.44701 2.6785,5.12291 5.20434,10.90563 5.61298,12.8505 1.30965,6.23314 8.97243,7.81754 49.04067,10.13997 26.33979,1.5267 29.53052,2.31887 31.84488,7.90622 1.67939,4.05442 0.36515,8.23157 -3.49711,11.11517 -2.66375,1.98877 -5.01837,2.20273 -31.66884,2.87762 -15.83513,0.40102 -31.17129,1.2519 -34.08038,1.89085 -2.90909,0.63896 -6.26903,1.38228 -7.46654,1.65184 -1.54075,0.34682 -2.69388,2.12269 -3.9444,6.07459 -2.51876,7.95984 -8.87878,18.33222 -15.06227,24.56467 -11.11957,11.20756 -27.80399,19.76066 -42.28712,21.67805 -7.92585,1.04928 -82.2768,8.59794 -100.1353,10.16647 l -8.10225,0.71163 -0.6848,3.65032 c -0.37664,2.00768 -2.26947,5.40704 -4.2063,7.55414 -1.93681,2.1471 -4.31261,5.80796 -5.27955,8.13523 -0.96694,2.32727 -3.56422,6.13554 -5.77173,8.46281 -2.20752,2.32728 -5.32899,6.54327 -6.9366,9.36891 -1.60761,2.82561 -4.29128,5.91982 -5.9637,6.87603 -1.67243,0.95619 -3.5824,3.04248 -4.24437,4.6362 -1.43302,3.44997 -8.76369,10.32547 -11.00903,10.32547 -0.87105,0 -1.58373,0.64103 -1.58373,1.42451 0,1.61939 -6.99025,9.15401 -8.49265,9.15401 -0.54221,0 -4.13754,2.85619 -7.98962,6.34711 -3.85208,3.4909 -7.81124,6.3471 -8.79813,6.3471 -0.9869,0 -3.64477,1.89501 -5.90639,4.21112 -2.40206,2.45992 -6.1595,4.89117 -9.03561,5.84645 -2.70795,0.89944 -6.24709,3.01682 -7.86473,4.70528 -1.80206,1.88094 -4.92072,3.54481 -8.05231,4.29606 -2.81113,0.67438 -5.72976,1.97382 -6.48584,2.88763 -1.77444,2.1446 -9.16308,5.50442 -12.17071,5.53436 -1.28326,0.0128 -4.04,1.18151 -6.12611,2.59717 -2.31091,1.56824 -6.15256,2.85762 -9.8321,3.29998 -3.32155,0.39933 -6.75323,1.3158 -7.62596,2.0366 -2.3648,1.95314 -8.27768,3.72092 -12.5876,3.76334 -2.09501,0.0206 -4.99918,0.71779 -6.45372,1.54929 -1.45455,0.83148 -5.35084,1.52868 -8.65841,1.54928 -3.30758,0.0206 -7.35387,0.5818 -8.99173,1.24708 -1.63789,0.66528 -6.78623,1.29422 -11.44077,1.39764 -4.65455,0.10346 -10.12893,0.55302 -12.16529,0.99911 -2.03637,0.4461 -4.09941,0.41221 -4.58455,-0.0753 z m 812.25392,-53.79832 c 21.0036,-1.51906 45.614,-8.73427 67.1354,-19.68258 53.2854,-27.10702 89.2434,-75.76332 100.0843,-135.42783 2.322,-12.78003 3.1062,-38.40928 1.5813,-51.68014 -4.0658,-35.38036 -15.7978,-65.11152 -36.8619,-93.41489 -44.9138,-60.34963 -123.1626,-87.68102 -197.3417,-68.92909 -5.85367,1.47976 -12.69465,3.59802 -15.20227,4.70725 l -4.55925,2.01679 4.10302,11.4298 c 2.2566,6.2864 15.04688,40.22981 28.4228,75.42981 13.3758,35.2 24.9607,65.79919 25.7442,67.9982 1.4037,3.94002 1.4887,3.98856 5.8417,3.33577 4.9865,-0.74776 12.2483,1.88968 15.5993,5.66556 2.7329,3.07935 4.823,9.4485 4.8778,14.86397 0.035,3.49325 -0.5226,5.07375 -2.3338,6.6111 -5.7088,4.84582 -9.6002,6.52472 -17.0629,7.36163 -4.2275,0.4741 -11.186,2.08465 -15.4631,3.57899 -4.2771,1.49435 -8.3154,2.71701 -8.9738,2.71701 -0.6584,0 -17.56695,-40.93885 -37.57455,-90.97521 -20.0076,-50.03636 -36.88012,-90.95765 -37.49445,-90.93621 -1.88685,0.0659 -14.95552,9.73013 -23.59747,17.45033 -18.33585,16.38003 -32.4528,34.74879 -43.06178,56.03133 -30.83857,61.86484 -26.37465,133.09119 11.90055,189.8843 32.28158,47.89968 85.00538,78.51732 141.9722,82.44573 11.8853,0.8196 14.894,0.7747 32.2644,-0.48162 z m -787.04128,-1.05607 c 30.40186,-4.57494 57.91926,-15.76838 83.97689,-34.15985 9.20026,-6.49355 33.97352,-29.95038 33.97352,-32.16819 0,-1.66631 -29.10169,0.27987 -140.03873,9.36513 -7.08549,0.58026 -8.41797,0.99523 -8.88096,2.76568 -0.48263,1.8456 -1.14407,2.00346 -5.80433,1.38526 -7.07274,-0.93824 -14.10538,-4.39221 -17.11045,-8.40352 -3.05124,-4.07296 -8.6063,-14.12709 -9.53335,-17.25445 -0.63938,-2.15692 -0.41804,-2.27838 3.10903,-1.70601 2.8659,0.46506 5.01975,-0.0382 8.78018,-2.0516 2.74051,-1.46731 9.74308,-4.19034 15.56125,-6.05119 17.48037,-5.59077 40.72728,-19.49501 40.72728,-24.35943 0,-1.16661 -0.42306,-2.12111 -0.94012,-2.12111 -1.13852,0 -2.67047,-6.95115 -2.30578,-10.4623 0.22709,-2.1864 -0.0722,-2.43298 -2.21269,-1.82285 -7.48049,2.1323 -15.7157,3.0082 -29.55054,3.14299 -19.33582,0.18839 -19.47036,0.11308 -18.58465,-10.40474 0.34405,-4.08557 0.93611,-8.49938 1.31568,-9.80847 0.58915,-2.03187 0.29054,-2.38017 -2.04064,-2.38017 -1.64272,0 -3.17929,-0.83802 -3.85639,-2.10321 -0.61909,-1.15677 -2.3061,-2.39949 -3.74891,-2.76162 -1.60795,-0.40356 -2.87634,-1.66659 -3.27706,-3.26319 -0.35957,-1.43262 -1.78352,-3.03432 -3.16434,-3.55931 -1.66741,-0.63394 -2.51059,-1.79645 -2.51059,-3.46137 0,-1.37877 -0.95207,-3.36846 -2.11571,-4.42154 -1.16363,-1.05308 -2.1157,-3.1738 -2.1157,-4.71272 0,-1.53891 -0.58217,-3.38019 -1.2937,-4.09173 -0.71153,-0.71153 -1.15523,-2.9008 -0.986,-4.86507 0.16923,-1.96425 -0.20196,-3.88634 -0.82487,-4.27132 -0.80214,-0.49575 -0.79375,-1.33303 0.0288,-2.87 0.63876,-1.19352 0.94419,-3.30622 0.67872,-4.69488 -0.26546,-1.38867 0.15014,-3.35847 0.92355,-4.37733 0.77341,-1.01887 1.42134,-3.10329 1.43985,-4.63206 0.0185,-1.52875 0.74769,-3.37216 1.62042,-4.09647 0.87273,-0.72429 1.58677,-2.21533 1.58677,-3.31343 0,-1.09809 0.99553,-2.82493 2.21229,-3.83741 1.21675,-1.01249 2.63631,-2.9205 3.15458,-4.24002 0.51827,-1.31954 2.10019,-2.83937 3.51538,-3.37742 1.41519,-0.53806 2.8839,-1.95762 3.26381,-3.15459 0.48781,-1.53683 1.59139,-2.17629 3.75582,-2.17629 1.98239,0 3.46501,-0.74733 4.19734,-2.11571 0.62276,-1.16364 2.09891,-2.1157 3.28032,-2.1157 1.18141,0 3.1878,-0.56823 4.45865,-1.26273 1.27083,-0.69451 3.64368,-1.13215 5.27298,-0.97254 1.6293,0.1596 3.65244,-0.28251 4.49587,-0.9825 1.19745,-0.9938 1.8818,-0.98364 3.1229,0.0464 0.97197,0.80666 2.88004,1.06097 4.91178,0.65461 1.90413,-0.38083 3.93282,-0.15784 4.7524,0.52236 1.07477,0.89197 2.05433,0.77777 3.9429,-0.45966 2.56896,-1.68326 33.08441,-33.88527 68.84816,-72.65337 11.00297,-11.92727 22.18091,-23.98477 24.83988,-26.79444 l 4.83449,-5.10849 -3.88901,-3.35432 c -6.08712,-5.25027 -25.58941,-15.83389 -38.95397,-21.13982 -12.25396,-4.865 -26.61113,-8.85822 -41.25619,-11.47474 -11.90988,-2.12785 -48.65932,-1.82066 -61.07586,0.51053 -71.96849,13.51201 -128.794866,64.71325 -148.728179,134.00587 -3.997083,13.89473 -6.086298,27.66231 -6.742173,44.42975 -3.74009,95.61533 64.463062,178.23394 159.346562,193.02611 12.64304,1.97103 42.55829,1.97865 55.61287,0.0142 z m 8.46281,-62.97791 c 39.26121,-2.93679 103.63089,-8.22897 109.84515,-9.03096 5.08572,-0.65635 5.15782,-0.72123 11.48207,-10.33355 11.60047,-17.6317 24.20158,-46.22896 24.50226,-55.60595 l 0.15399,-4.80235 -5.48001,-0.68968 c -6.4132,-0.80712 -11.16479,-3.8349 -13.0103,-8.29035 -1.49849,-3.61767 -1.69604,-3.6704 -20.12126,-5.37136 -6.69091,-0.61769 -32.11268,-3.24176 -56.49283,-5.83127 -46.33855,-4.92179 -48.03227,-4.93127 -46.8112,-0.26191 0.33203,1.26971 -0.37248,2.53956 -2.00091,3.60655 -1.38236,0.90576 -2.8107,2.58358 -3.17408,3.72849 -0.36338,1.14492 -1.81005,2.51865 -3.2148,3.05274 -5.22788,1.98764 -3.15514,4.3615 10.60227,12.14261 16.65228,9.41842 19.70734,20.07696 8.56572,29.8842 -5.27337,4.6418 -26.6988,18.19918 -42.25664,26.73874 -10.04587,5.51409 -10.65729,6.0417 -10.42,8.99173 0.33139,4.12004 0.32074,4.40072 -0.39175,10.32553 l -0.61042,5.07589 5.13537,-0.59631 c 2.82446,-0.32798 17.98828,-1.55775 33.69737,-2.73279 z m 226.29348,-18.84383 c 22.23706,-1.96564 31.7795,-3.18952 32.08815,-4.1155 0.28878,-0.86631 -0.70426,-1.3179 -2.89797,-1.3179 -1.83549,0 -4.05132,-0.71406 -4.92404,-1.58678 -0.87273,-0.87273 -2.66908,-1.58678 -3.99189,-1.58678 -1.32281,0 -3.26671,-0.95207 -4.3198,-2.1157 -1.05308,-1.16364 -2.70712,-2.1157 -3.67566,-2.1157 -0.96854,0 -2.79574,-1.19009 -4.06046,-2.64463 -1.26471,-1.45454 -3.02688,-2.64463 -3.91593,-2.64463 -0.88904,0 -2.15868,-1.19008 -2.82142,-2.64463 -0.66274,-1.45454 -1.79559,-2.64462 -2.51746,-2.64462 -1.24911,0 -4.11731,-3.87249 -8.0994,-10.93541 -0.99968,-1.77311 -2.54679,-3.63192 -3.43802,-4.13067 -0.89122,-0.49876 -1.62041,-2.25298 -1.62041,-3.89829 0,-1.64529 -0.74715,-3.61153 -1.66032,-4.3694 -0.91318,-0.75787 -1.44183,-2.21346 -1.17478,-3.23464 0.7056,-2.69828 -2.17311,-6.22498 -5.08122,-6.22498 -2.01733,0 -3.03887,1.16155 -5.22927,5.94601 -1.49719,3.27032 -2.72683,7.67362 -2.73251,9.78512 -0.005,2.11152 -1.19576,6.38555 -2.64463,9.49788 -1.44886,3.11231 -2.63429,6.68256 -2.63429,7.93388 0,1.25131 -1.88012,6.08338 -4.17805,10.73793 -2.29793,4.65454 -4.49663,10.26699 -4.886,12.47209 l -0.70796,4.00928 6.73724,-0.68716 c 3.70549,-0.37793 20.97923,-1.94607 38.3861,-3.48477 z M 486.49935,505.3032 c 0,-2.24205 1.37399,-5.72764 4.41224,-11.19317 0.48513,-0.87273 1.37385,-2.73324 1.9749,-4.13448 0.60107,-1.40123 2.54586,-4.25743 4.32176,-6.34711 1.7759,-2.08967 4.73422,-5.5652 6.57406,-7.72338 1.83983,-2.1582 3.83417,-3.94332 4.43189,-3.96695 0.5977,-0.0236 2.27292,-1.39475 3.72269,-3.04693 1.44978,-1.6522 3.3353,-3.23711 4.19007,-3.52203 1.28979,-0.42994 1.3352,-0.99853 0.26693,-3.34312 -1.46733,-3.22042 -3.36166,-3.39277 -23.64734,-2.15158 l -11.00753,0.6735 0.33104,10.16947 c 0.18207,5.59321 0.26107,14.80082 0.17554,20.46135 -0.0855,5.66053 0.16035,11.72995 0.5464,13.4876 0.84279,3.83717 3.70735,4.32923 3.70735,0.63683 z M 429.70922,487.234 c -0.10729,-8.72727 -0.50232,-17.94981 -0.87783,-20.49451 l -0.68274,-4.62676 -12.34532,0.66891 c -16.8309,0.91194 -63.92891,2.6438 -102.0688,3.75323 -17.34793,0.50461 -31.83822,1.21402 -32.20065,1.57644 -0.36242,0.36243 0.40264,1.40252 1.70013,2.31133 1.6503,1.15592 2.15869,2.2838 1.69207,3.75395 -0.40711,1.28268 0.0273,2.86877 1.11476,4.07043 1.2036,1.32995 1.57842,2.93593 1.15509,4.94899 -1.26544,6.01745 1.06797,6.97571 22.74043,9.33877 66.42175,7.24233 104.26515,10.8872 111.50514,10.73956 l 8.46281,-0.17257 z m -54.81318,-26.46553 c 23.85455,-0.85838 45.43104,-1.83482 47.94777,-2.16985 l 4.57588,-0.60916 -0.72774,-4.41905 c -2.39164,-14.52283 -12.53142,-41.25828 -21.77509,-57.4141 -6.34346,-11.08696 -19.48881,-28.18246 -28.39087,-36.92231 l -7.54241,-7.40496 -12.94923,13.22314 c -24.29887,24.81281 -77.42174,82.30975 -80.77146,87.42208 -1.2856,1.96208 -1.35475,3.10421 -0.36884,6.09158 0.6674,2.02221 2.01938,3.92399 3.00441,4.22619 2.4264,0.74439 44.42393,-0.13177 96.99758,-2.02356 z m 201.0603,-3.43496 c 0.61953,-0.42746 34.17986,-41.44959 74.57851,-91.16029 40.39866,-49.71071 94.00119,-115.64129 119.11678,-146.5124 25.11555,-30.87111 45.33307,-56.4764 44.92778,-56.90064 -0.40523,-0.42424 -6.19733,0.66581 -12.8712,2.42232 -6.67395,1.75652 -79.25514,20.0902 -161.2915,40.74153 -82.03637,20.65132 -150.73184,38.05362 -152.65661,38.67177 -3.22729,1.03647 -3.44536,1.38345 -2.80257,4.45956 0.38336,1.83462 7.26552,27.61335 15.29371,57.28608 8.02818,29.67273 20.19668,74.65785 27.04112,99.96694 6.84444,25.30909 12.90116,46.61157 13.45937,47.33885 0.67585,0.88053 4.24086,1.33773 10.67053,1.36846 5.31059,0.0254 12.5118,0.69066 16.00271,1.47838 3.49091,0.78773 6.58513,1.47371 6.87604,1.52443 0.29091,0.0507 1.03581,-0.25754 1.65533,-0.68499 z m -75.30823,-1.29447 13.61983,-0.0116 -0.60372,-3.01864 C 513.236,450.86771 470.81865,299.56436 459.2753,259.00265 c -0.28977,-1.01818 -0.83549,-1.85124 -1.21272,-1.85124 -1.45832,0 -53.01777,53.78761 -53.01777,55.30895 0,0.71604 4.8276,6.01947 13.4876,14.81695 3.63636,3.6941 6.61156,7.23209 6.61156,7.86218 0,0.6301 2.39889,3.44464 5.33085,6.25452 2.93197,2.8099 5.61885,6.30729 5.97086,7.772 0.35201,1.4647 2.67372,4.86136 5.15936,7.54816 2.48564,2.68679 5.00425,6.64119 5.59689,8.78757 0.59264,2.14637 2.72334,5.72421 4.73489,7.95075 2.30559,2.55201 3.92547,5.63511 4.38272,8.34162 0.39895,2.36134 1.437,4.88396 2.30676,5.6058 2.4336,2.01971 5.65817,8.97127 5.65817,12.19795 0,1.59191 1.22537,4.66259 2.72306,6.82375 1.57722,2.27593 3.05844,6.30607 3.52008,9.57752 0.43836,3.10648 1.83116,7.54523 3.09512,9.86388 1.26396,2.31867 2.2981,5.75327 2.2981,7.63245 0,1.8792 0.76898,5.6817 1.70884,8.44998 0.93986,2.7683 1.70884,7.36062 1.70884,10.20517 v 5.1719 l 3.84487,-0.6359 c 2.1147,-0.34973 9.97382,-0.64112 17.46473,-0.64752 z"
     id="path256" />
</svg>
