<?xml version="1.0" encoding="UTF-8" standalone="no"?>
<svg
   version="1.1"
   id="Layer_1"
   x="0px"
   y="0px"
   viewBox="0 0 277.32 294.912"
   xml:space="preserve"
   sodipodi:docname="graduation-student-icon.svg"
   width="471.444"
   height="501.3504"
   inkscape:version="1.2.2 (732a01da63, 2022-12-09)"
   xmlns:inkscape="http://www.inkscape.org/namespaces/inkscape"
   xmlns:sodipodi="http://sodipodi.sourceforge.net/DTD/sodipodi-0.dtd"
   xmlns="http://www.w3.org/2000/svg"
   xmlns:svg="http://www.w3.org/2000/svg"><defs
     id="defs274" /><sodipodi:namedview
     id="namedview272"
     pagecolor="#ffffff"
     bordercolor="#000000"
     borderopacity="0.25"
     inkscape:showpageshadow="2"
     inkscape:pageopacity="0.42352941"
     inkscape:pagecheckerboard="0"
     inkscape:deskcolor="#d1d1d1"
     showgrid="false"
     inkscape:lockguides="true"
     inkscape:zoom="0.85144045"
     inkscape:cx="135.65247"
     inkscape:cy="493.28171"
     inkscape:window-width="1920"
     inkscape:window-height="1017"
     inkscape:window-x="-8"
     inkscape:window-y="-8"
     inkscape:window-maximized="1"
     inkscape:current-layer="Layer_1" /><style
     type="text/css"
     id="style265">.st0{fill-rule:evenodd;clip-rule:evenodd;}</style><g
     id="g269"
     style="fill:#de5631;fill-opacity:1"
     transform="scale(2.4)"><path
       class="st0"
       d="m 65.43,57.69 c -0.08,0.2 -0.12,0.42 -0.12,0.64 0,1 0.81,1.81 1.81,1.81 1,0 1.81,-0.81 1.81,-1.81 0,-0.29 -0.07,-0.56 -0.19,-0.8 0.79,0.09 1.59,0.26 2.39,0.52 0.34,0.11 0.7,-0.12 0.8,-0.5 0.1,-0.39 -0.1,-0.79 -0.44,-0.91 C 70.18,56.21 68.88,56 67.58,56 c -1.3,0 -2.58,0.22 -3.86,0.64 -0.34,0.11 -0.54,0.52 -0.44,0.91 0.1,0.39 0.46,0.61 0.8,0.5 0.45,-0.15 0.9,-0.27 1.35,-0.36 z m 8.71,32.71 c -1.35,-1.58 -2.77,-3.64 -4.02,-5.48 -6.85,5.61 -15.99,7.09 -24.78,-0.51 -0.06,0.08 -0.12,0.16 -0.17,0.25 -1.11,1.62 -2.35,3.46 -3.58,4.99 5.59,29.5 29.04,30.14 32.55,0.75 z m -2.25,-7.06 c 0.81,1.19 1.7,2.49 2.58,3.68 6.12,5.27 23.6,6.37 30.13,10.01 2.08,1.16 3.97,2.64 5.48,4.64 3.78,4.98 4.1,9.19 5.47,15.3 -0.33,3.56 -2.35,5.61 -6.33,5.91 H 6.33 c -3.97,-0.3 -5.99,-2.35 -6.33,-5.91 1.37,-6.11 1.69,-10.31 5.47,-15.3 1.51,-2 3.4,-3.48 5.48,-4.64 6.21,-3.46 22.28,-4.62 29.12,-9.24 1.07,-1.38 2.18,-3.01 3.16,-4.46 l 0.3,-0.44 0.25,0.07 c -2.89,-2.88 -5.73,-6.79 -8.41,-11.9 -0.02,-0.1 -0.03,-0.2 -0.03,-0.3 v 0 -2.78 0 c -0.15,0.02 -0.3,0.03 -0.45,0 -2.77,-0.41 -4.26,-3.8 -4.62,-7.04 -0.1,-0.89 -0.12,-1.78 -0.05,-2.57 0.07,-0.85 0.23,-1.64 0.48,-2.27 0.55,-1.39 1.5,-2.16 2.88,-1.9 0.66,0.12 1.26,0.46 1.77,1.04 V 54.1 c -1.56,-0.87 -2.18,-3.81 -2.37,-6.57 h -0.05 v -1.11 c -0.02,-0.68 -0.02,-1.32 0,-1.9 V 28.03 l 26.32,10.1 25.67,-10.1 v 16.35 h 0.09 c -0.04,0.25 -0.07,0.51 -0.09,0.78 v 2.37 l -0.17,-0.01 c -0.18,2.62 -0.52,5.43 -2.44,6.62 1.21,-0.09 2.06,0.66 2.57,1.94 0.25,0.64 0.41,1.42 0.48,2.27 0.06,0.8 0.04,1.68 -0.05,2.57 -0.36,3.25 -1.85,6.64 -4.62,7.04 -0.43,0.06 -0.36,-0.12 -0.36,0.42 -1.4,5.63 -4.42,11.02 -8.44,14.96 z M 58.74,0 l 44.64,16.89 -3.49,1.39 v 12.1 c 0.95,0.6 1.58,1.7 1.58,2.96 0,1.9 -1.45,3.45 -3.23,3.45 -1.79,0 -3.24,-1.54 -3.24,-3.45 0,-1.26 0.64,-2.36 1.59,-2.96 V 19.59 l -5.7,2.27 v 8.52 c 0.95,0.6 1.58,1.7 1.58,2.96 0,1.9 -1.45,3.45 -3.24,3.45 -1.79,0 -3.23,-1.54 -3.23,-3.45 0,-1.26 0.63,-2.36 1.58,-2.96 V 23.17 L 58.74,34.64 14.76,17.41 Z m -6.67,78.92 c -0.47,-0.29 -0.62,-0.91 -0.33,-1.38 0.29,-0.47 0.91,-0.62 1.38,-0.33 1.64,1 3.23,1.48 4.77,1.46 1.53,-0.01 3.04,-0.51 4.54,-1.46 0.47,-0.3 1.09,-0.16 1.39,0.31 0.3,0.47 0.16,1.09 -0.31,1.39 -1.82,1.15 -3.69,1.75 -5.61,1.76 -1.93,0.01 -3.87,-0.56 -5.83,-1.75 z M 69.6,46.98 c -11.05,-0.31 -21.81,-0.35 -32.25,0.25 -0.2,0.05 -0.4,0.1 -0.6,0.15 V 70.75 C 50.78,97.73 72.62,89.45 78.78,68.4 V 47.3 c -3.43,0.05 -6.44,-0.09 -9.18,-0.32 z m 10.86,19.54 v -8.43 c 0.36,-1.53 1.03,-2.32 1.79,-2.46 2.63,-0.49 2.21,10.31 -1.79,10.89 z m -24.93,3.72 c -0.36,-0.3 -0.4,-0.83 -0.1,-1.18 0.3,-0.36 0.83,-0.4 1.18,-0.11 0.42,0.35 0.82,0.54 1.21,0.54 0.39,0 0.81,-0.17 1.26,-0.55 0.36,-0.29 0.88,-0.24 1.18,0.12 0.29,0.36 0.24,0.88 -0.11,1.18 -0.77,0.64 -1.56,0.94 -2.35,0.93 C 57,71.16 56.25,70.84 55.53,70.24 Z M 35.09,66.52 v -8.43 c -0.36,-1.53 -1.03,-2.32 -1.79,-2.46 -2.63,-0.49 -2.21,10.31 1.79,10.89 z m 9.36,-8.29 c -0.34,0.13 -0.7,-0.07 -0.82,-0.46 -0.12,-0.38 0.06,-0.8 0.4,-0.93 1.3,-0.51 2.61,-0.74 3.92,-0.73 1.3,0.01 2.6,0.26 3.9,0.73 0.34,0.12 0.53,0.53 0.42,0.92 -0.11,0.38 -0.47,0.6 -0.81,0.48 -0.43,-0.16 -0.86,-0.28 -1.29,-0.39 0.04,0.16 0.07,0.32 0.07,0.49 0,1 -0.81,1.81 -1.81,1.81 -1,0 -1.81,-0.81 -1.81,-1.81 0,-0.25 0.05,-0.48 0.14,-0.69 -0.77,0.09 -1.54,0.28 -2.31,0.58 z"
       id="path267"
       style="fill:#de5631;fill-opacity:1" /></g><g
     inkscape:groupmode="layer"
     id="layer1"
     inkscape:label="Layer 2"
     style="display:inline"
     transform="translate(61.946506,85.86919)" /></svg>
