<?xml version="1.0" encoding="UTF-8" standalone="no"?>
<svg
   version="1.1"
   id="Layer_1"
   x="0px"
   y="0px"
   viewBox="0 0 277.32 294.912"
   xml:space="preserve"
   sodipodi:docname="trail.svg"
   width="471.444"
   height="260.3504"
   inkscape:version="1.2.2 (732a01da63, 2022-12-09)"
   xmlns:inkscape="http://www.inkscape.org/namespaces/inkscape"
   xmlns:sodipodi="http://sodipodi.sourceforge.net/DTD/sodipodi-0.dtd"
   xmlns="http://www.w3.org/2000/svg"
   xmlns:svg="http://www.w3.org/2000/svg"><defs
     id="defs274" /><sodipodi:namedview
     id="namedview272"
     pagecolor="#ffffff"
     bordercolor="#000000"
     borderopacity="0.25"
     inkscape:showpageshadow="2"
     inkscape:pageopacity="0.42352941"
     inkscape:pagecheckerboard="0"
     inkscape:deskcolor="#d1d1d1"
     showgrid="false"
     inkscape:lockguides="true"
     inkscape:zoom="0.85144045"
     inkscape:cx="136.23971"
     inkscape:cy="493.28171"
     inkscape:window-width="1920"
     inkscape:window-height="1017"
     inkscape:window-x="-8"
     inkscape:window-y="-8"
     inkscape:window-maximized="1"
     inkscape:current-layer="Layer_1" /><style
     type="text/css"
     id="style265">.st0{fill-rule:evenodd;clip-rule:evenodd;}</style><g
     inkscape:groupmode="layer"
     id="layer1"
     inkscape:label="Layer 2"
     style="display:inline"
     transform="translate(61.946506,85.86919)" /><g
     id="g10"
     transform="matrix(0.92886371,0,0,0.76765321,-51.987767,-3.1532383)">
	<path
   d="m 322.833,381.871 c -0.258,-0.005 -26.109,-0.57 -53.849,-7.807 -24.776,-6.463 -56.088,-19.696 -64.552,-46.03 -15.083,-46.925 34.861,-113.407 74.992,-166.826 30.772,-40.96 55.077,-73.313 53.277,-95.816 C 331.6,51.627 320.427,38.469 299.493,26.283 283.924,17.22 262.719,8.47 236.467,0.274 c -3.164,-0.987 -6.528,0.776 -7.516,3.939 -0.987,3.163 0.776,6.528 3.939,7.515 74.494,23.257 87.015,44.204 87.848,54.62 1.438,17.972 -23.989,51.819 -50.909,87.652 -43.97,58.529 -93.806,124.867 -76.822,177.705 19.092,59.399 125.096,62.078 129.599,62.163 0.039,0 0.077,0.001 0.115,0.001 3.261,0 5.935,-2.612 5.997,-5.887 0.064,-3.312 -2.572,-6.049 -5.885,-6.111 z"
   id="path2" />
	<path
   d="M 244.412,89.767 C 248.448,77.661 247.278,66 240.936,55.111 219.323,17.997 143.113,2.62 139.879,1.983 c -3.25,-0.642 -6.406,1.477 -7.046,4.728 -0.64,3.251 1.477,6.406 4.729,7.046 0.187,0.037 18.888,3.761 39.875,11.66 27.08,10.192 45.453,22.548 53.131,35.733 4.594,7.889 5.399,16.009 2.461,24.823 -4.137,12.41 -31.346,35.429 -60.153,59.799 -31.966,27.042 -68.196,57.692 -94.246,89.904 -31.357,38.775 -41,71.624 -29.48,100.423 10.19,25.477 26.378,45.971 49.486,62.653 1.063,0.767 2.29,1.136 3.507,1.136 1.861,0 3.697,-0.864 4.87,-2.489 1.939,-2.687 1.334,-6.437 -1.353,-8.376 -21.208,-15.311 -36.049,-34.08 -45.369,-57.381 -22.388,-55.97 60.103,-125.754 120.334,-176.709 32.732,-27.691 58.586,-49.563 63.787,-65.166 z"
   id="path4" />
	<path
   d="m 90.915,128.189 c -2.083,2.578 -1.682,6.355 0.895,8.438 2.577,2.083 6.354,1.682 8.438,-0.895 L 111,122.428 v 28.273 c 0,3.313 2.686,6 6,6 3.314,0 6,-2.687 6,-6 v -28.273 l 10.752,13.304 c 1.186,1.467 2.92,2.229 4.67,2.229 1.324,0 2.657,-0.436 3.768,-1.333 2.577,-2.083 2.978,-5.86 0.895,-8.438 L 123,103.336 V 92.081 l 10.752,13.305 c 1.186,1.467 2.92,2.229 4.67,2.229 1.324,0 2.657,-0.436 3.768,-1.333 2.577,-2.083 2.978,-5.86 0.895,-8.438 L 123,72.99 V 61.734 l 10.752,13.304 c 1.186,1.467 2.92,2.229 4.67,2.229 1.324,0 2.657,-0.437 3.768,-1.333 2.577,-2.083 2.978,-5.861 0.895,-8.438 L 121.667,40.993 c -1.139,-1.41 -2.854,-2.229 -4.667,-2.229 -1.813,0 -3.527,0.819 -4.667,2.229 L 90.915,67.496 c -2.083,2.577 -1.682,6.355 0.895,8.438 2.577,2.082 6.354,1.682 8.438,-0.896 L 111,61.734 V 72.99 L 90.915,97.843 c -2.083,2.578 -1.682,6.355 0.895,8.438 2.577,2.083 6.354,1.682 8.438,-0.895 L 111,92.081 v 11.255 z"
   id="path6" />
	<path
   d="m 344.764,260.612 c 1.186,1.467 2.92,2.229 4.67,2.229 1.324,0 2.657,-0.436 3.768,-1.333 2.577,-2.083 2.978,-5.86 0.895,-8.438 L 323,214.591 v -26.857 l 21.763,26.929 c 1.186,1.467 2.92,2.229 4.67,2.229 1.324,0 2.657,-0.436 3.768,-1.333 2.577,-2.083 2.978,-5.86 0.895,-8.438 l -32.43,-40.128 c -1.139,-1.409 -2.854,-2.229 -4.667,-2.229 -1.813,0 -3.527,0.819 -4.667,2.229 l -32.43,40.128 c -2.083,2.578 -1.682,6.355 0.895,8.438 2.577,2.083 6.354,1.682 8.438,-0.895 L 311,187.735 v 26.857 l -31.096,38.478 c -2.083,2.578 -1.682,6.355 0.895,8.438 2.577,2.083 6.354,1.682 8.438,-0.895 L 311,233.683 v 26.857 l -31.096,38.478 c -2.083,2.578 -1.682,6.355 0.895,8.438 2.577,2.083 6.354,1.682 8.438,-0.895 L 311,279.631 v 51.57 c 0,3.313 2.687,6 6,6 3.313,0 6,-2.687 6,-6 v -51.57 l 21.763,26.929 c 1.186,1.467 2.92,2.229 4.67,2.229 1.324,0 2.657,-0.436 3.768,-1.333 2.577,-2.083 2.978,-5.86 0.895,-8.438 L 323,260.54 v -26.857 z"
   id="path8" />
</g><path
     style="fill:#de5631;stroke-width:1.53114"
     d=""
     id="path1204" /><path
     style="fill:#de5631;stroke-width:1.53114"
     d="M 32.909392,297.35986 C 15.790283,286.31043 -1.6310066,265.48382 -7.4899666,249.0637 c -7.0992904,-19.89621 3.6741,-44.83466 31.2546376,-72.34881 17.169558,-17.12823 36.815818,-32.65823 81.705679,-64.5868 55.22618,-39.280438 60.91105,-44.628548 60.92262,-57.313548 0.016,-17.56859 -28.07978,-34.26022 -75.785498,-45.0239303 -17.030084,-3.84246 -20.789491,-5.90262 -16.805191,-9.20930002 2.105394,-1.74731998 4.881979,-1.52502 18.06769,1.44652002 41.843929,9.4300003 73.170949,25.5065903 81.648859,41.9010503 3.57523,6.91375 2.93929,16.93634 -1.56197,24.61718 -4.97281,8.48545 -15.76555,17.2089 -63.74132,51.520168 C 63.459333,152.07494 43.098289,168.404 27.703406,184.63494 7.5979034,205.83233 0.67035338,218.79005 0.43383338,235.64162 c -0.13244,9.43555 0.47145,11.8662 5.04710002,20.31472 6.6194196,12.22217 20.2134656,26.95348 32.1191396,34.80617 9.042384,5.96414 11.628982,10.28904 7.175622,11.99796 -1.206924,0.46314 -6.546761,-1.96713 -11.866303,-5.40061 z"
     id="path1206" /><path
     style="fill:#de5631;stroke-width:1.53114"
     d="m 231.78123,297.42412 c -43.16666,-3.29427 -78.62165,-15.63729 -94.34957,-32.84613 -13.28897,-14.54027 -15.65089,-30.12141 -7.92895,-52.30574 7.99868,-22.97934 24.29796,-45.80313 65.45186,-91.6519 40.92676,-45.595728 49.55708,-57.407188 50.70954,-69.401108 0.64728,-6.7363 0.25055,-7.84045 -4.84262,-13.47799 -9.08142,-10.05205 -34.75495,-21.60185 -67.30084,-30.2767803 -10.38206,-2.76728 -13.67198,-5.50804 -10.46327,-8.71675 1.19085,-1.19085 5.89082,-0.46044 16.66302,2.58955 43.82904,12.4095403 69.05481,26.3377203 74.76073,41.2784603 2.40899,6.30784 2.41152,7.26132 0.0383,14.40642 -1.39778,4.20834 -5.86035,12.35776 -9.91682,18.10984 -7.02406,9.96012 -13.19908,17.18955 -53.57008,62.717408 -38.27296,43.16181 -56.78767,74.56049 -56.78767,96.30487 0,21.77655 16.89355,37.40991 51.15415,47.33824 14.72667,4.26762 41.06959,8.50443 52.87745,8.50443 7.98469,0 13.86585,1.94827 13.86585,4.5934 0,3.09157 -6.01447,3.92864 -20.36107,2.83378 z"
     id="path1208" /><path
     style="fill:#de5631;stroke-width:1.53114"
     d="m 239.38283,253.76006 c -0.56141,-0.56142 -1.02076,-10.55208 -1.02076,-22.20147 0,-11.64939 -0.53573,-21.18071 -1.19052,-21.18071 -0.65478,0 -4.8518,4.15942 -9.3267,9.24317 -4.4749,5.08374 -9.69866,10.26696 -11.60838,11.51825 -3.65719,2.39629 -8.49711,1.58064 -8.49711,-1.43198 0,-0.97837 6.89012,-8.6431 15.31135,-17.03275 l 15.31136,-15.2539 v -11.12946 c 0,-6.1212 -0.60486,-11.12946 -1.34415,-11.12946 -0.73928,0 -5.28761,4.49167 -10.1074,9.98147 -4.81978,5.48981 -10.02159,10.65493 -11.55957,11.47804 -3.15173,1.68674 -7.61159,0.50667 -7.61159,-2.01403 0,-0.91453 6.89012,-8.66456 15.31135,-17.22228 l 15.31136,-15.55948 v -10.93992 c 0,-6.01696 -0.6369,-10.93992 -1.41532,-10.93992 -0.77843,0 -5.65432,4.76962 -10.8353,10.59916 -5.181,5.82956 -10.4007,10.97552 -11.59934,11.43547 -2.86534,1.09954 -6.77275,-0.45966 -6.77275,-2.70257 0,-2.72968 32.63817,-34.64342 35.42981,-34.64342 2.94878,0 33.4713,31.28563 33.4713,34.30813 0,1.16132 -1.16249,2.5576 -2.58331,3.10281 -1.86854,0.71702 -5.89325,-2.2992 -14.5458,-10.901 L 247.54888,139.2519 v 11.20797 11.20797 l 14.5458,15.41932 c 8.00018,8.48063 14.54579,16.36147 14.54579,17.51297 0,1.15149 -1.0933,2.51317 -2.42956,3.02593 -1.67055,0.64106 -6.21467,-2.83061 -14.54578,-11.11286 l -12.11625,-12.04517 v 11.20088 11.2009 l 14.53398,15.55806 c 7.99369,8.55693 14.53929,16.44095 14.5458,17.52005 0.007,1.07908 -1.08149,2.3815 -2.41775,2.89428 -1.67055,0.64104 -6.21467,-2.83062 -14.54578,-11.11287 l -12.11625,-12.04518 v 20.71097 c 0,14.06702 -0.58941,21.30038 -1.83735,22.54833 -2.03294,2.03294 -4.76043,2.38487 -6.3287,0.81661 z"
     id="path1210" /><path
     style="fill:#de5631;stroke-width:1.53114"
     d="m 54.150518,115.21192 c -2.067549,-1.15706 -2.587009,-3.73832 -2.587009,-12.8552 0,-6.274088 -0.55385,-11.407438 -1.230778,-11.407438 -0.676927,0 -3.568134,2.41154 -6.424901,5.35898 -5.289571,5.457448 -9.927781,6.893078 -11.130189,3.44505 -0.367086,-1.05265 3.709564,-6.57766 9.059221,-12.27778 8.317855,-8.86278 9.726647,-11.18207 9.726647,-16.01294 v -5.64907 l -6.565284,6.44334 c -7.133192,7.0007 -8.916119,7.63155 -11.788119,4.171 -1.569691,-1.89136 -0.189245,-4.02973 8.233767,-12.75445 8.306709,-8.60426 10.119636,-11.38658 10.119636,-15.53074 v -5.04861 l -6.855901,6.31955 c -7.561018,6.9695 -8.731236,7.38036 -11.504242,4.0391 -1.580384,-1.90425 -0.05308,-4.17757 9.258096,-13.78023 7.370288,-7.60101 12.318678,-11.49977 14.595756,-11.49977 2.322502,0 6.728386,3.59747 13.521462,11.04046 10.55832,11.56846 11.737119,14.02395 7.510984,15.64567 -1.751276,0.67203 -4.563669,-0.97668 -8.861988,-5.19516 -3.463108,-3.39879 -6.787239,-6.17961 -7.386957,-6.17961 -0.599717,0 -1.090395,2.13403 -1.090395,4.74228 0,3.76763 2.084238,6.90118 10.141053,15.24659 6.685465,6.92494 9.832268,11.30898 9.234869,12.86578 -1.4652,3.81825 -4.587107,2.75791 -10.892753,-3.69965 -6.38643,-6.5403 -8.483169,-6.68607 -8.483169,-0.58975 0,2.71254 3.062948,7.05901 10.141053,14.39066 6.685465,6.92494 9.832268,11.30898 9.234869,12.86578 -1.494646,3.894978 -6.208214,2.689468 -11.720244,-2.9975 -2.856766,-2.94744 -5.747973,-5.35898 -6.4249,-5.35898 -0.676929,0 -1.230778,5.43837 -1.230778,12.085268 0,12.63406 -1.345985,15.11755 -6.599806,12.17737 z"
     id="path1212" /></svg>
